# xmcd
# 
# Track frame offsets:
#     150
#     16376
#     31299
#     50355
#     57344
#     89216
#     111685
#     131744
#     145524
# 
# Disc length: 2388
# 
# Revision: 0
# Processed by: cddbd v1.5.2PL0 Copyright (c) Steve Scherf et al.
# Submitted via: fre:ac v1.0.17
# 
DISCID=82095209
DTITLE=樋口宗孝 - Destruction〜破壊凱旋録〜
DYEAR=1986
DGENRE=Heavy Metal
TTITLE0=Law Breaker 「M」
TTITLE1=Jet Fighter
TTITLE2=Tiger
TTITLE3=Prayer
TTITLE4=Runaway From Yesterday
TTITLE5=In The Dark
TTITLE6=Death
TTITLE7=Growing Power
TTITLE8=Destruction
EXTD=YEAR: 1986
EXTT0=
EXTT1=
EXTT2=
EXTT3=
EXTT4=
EXTT5=
EXTT6=
EXTT7=
EXTT8=
PLAYORDER=
